<svg enable-background="new 0 0 512 512" version="1.1" viewBox="0 0 512 512" xml:space="preserve" xmlns="http://www.w3.org/2000/svg">
	<path d="m496.53 452.68c28.199-49.531 16.726-112.16-27.2-148.48v-69.547h10.667c5.891 0 10.667-4.776 10.667-10.667v-32h10.667c5.891-0.014 10.655-4.801 10.641-10.692-8e-3 -3.477-1.71-6.732-4.562-8.721l-245.33-170.67c-3.656-2.537-8.504-2.537-12.16 0l-245.33 170.67c-4.831 3.372-6.013 10.021-2.642 14.852 1.99 2.851 5.245 4.553 8.722 4.561h10.667v32c0 5.891 4.776 10.667 10.667 10.667h10.667v170.67h-10.668c-5.891 0-10.667 4.776-10.667 10.667v33.92c-12.754 4.509-21.295 16.551-21.333 30.079v21.333c0 5.891 4.776 10.667 10.667 10.667h490.67c5.891 0 10.667-4.776 10.667-10.667v-21.333c-0.033-11.179-5.896-21.531-15.468-27.306zm-27.2-239.36h-85.333v-21.333h85.333v21.333zm-21.333 21.333v55.573c-13.295-6.828-27.781-11.03-42.667-12.373v-43.2h42.667zm-192-210.99 211.31 146.99h-422.61l211.31-146.99zm-117.33 381.65h-10.667v-170.67h10.667c5.891 0 10.667-4.776 10.667-10.667v-32h42.666v32c0 5.891 4.776 10.667 10.667 10.667h10.667v170.67h-10.667c-5.891 0-10.667 4.776-10.667 10.667v32h-42.667v-32c0-5.892-4.775-10.667-10.666-10.667zm74.666 21.333h68.587c2.1 7.371 4.922 14.517 8.427 21.333h-77.013v-21.333zm21.334-21.333v-170.67h42.667v170.67h-42.667zm53.333-192h-74.667v-21.333h85.333v21.333h-10.666zm10.667 21.333h10.667c5.891 0 10.667-4.776 10.667-10.667v-32h42.667v32c0 5.891 4.776 10.667 10.667 10.667h10.665v43.2c-34.335 3.158-65.543 21.259-85.333 49.493v-92.693zm-256-42.667h85.333v21.333h-85.333v-21.333zm64 42.667v170.67h-42.667v-170.67h42.667zm-64 192h85.333v21.333h-85.333v-21.333zm-21.334 64v-10.667c0-5.891 4.776-10.667 10.667-10.667h272.21c6.731 8.11 14.515 15.285 23.147 21.333h-306.03zm469.33 0h-28.8c8.309-5.803 15.838-12.65 22.4-20.373 3.864 1.686 6.372 5.491 6.4 9.707v10.666zm-96 0c-53.019 0-96-42.981-96-96s42.981-96 96-96 96 42.981 96 96-42.981 96-96 96z"/>
	<path d="m380.16 130.02-117.33-85.333-13.12 17.28 90.773 66.027h-191.15v21.333h224c4.809 0.235 9.18-2.78 10.667-7.36 1.446-4.394-0.105-9.219-3.84-11.947z"/>
	<path d="m416 341.32h-10.667v-21.333h-21.333v21.333h-10.667c-11.782 0-21.333 9.551-21.333 21.333v21.333c0 11.782 9.551 21.333 21.333 21.333h42.667v21.333h-42.667v-10.667h-21.333v10.667c0 11.782 9.551 21.333 21.333 21.333h10.667v21.333h21.333v-21.333h10.667c11.782 0 21.333-9.551 21.333-21.333v-21.333c0-11.782-9.551-21.333-21.333-21.333h-42.667v-21.333h42.667v10.667h21.333v-10.667c0-11.782-9.551-21.333-21.333-21.333z"/>
</svg>
