<?xml version="1.0"?>
<svg xmlns="http://www.w3.org/2000/svg" viewBox="0 0 512 512" width="512" height="512"><g id="Out_line" data-name="Out line"><path d="M472,56H40A24.03189,24.03189,0,0,0,16,80V368a24.03189,24.03189,0,0,0,24,24H208v24a8.01074,8.01074,0,0,1-8,8,24,24,0,0,0,0,48H312a24,24,0,0,0,0-48,8.01058,8.01058,0,0,1-8-8V392H472a24.03189,24.03189,0,0,0,24-24V80A24.03189,24.03189,0,0,0,472,56ZM32,80a8.01058,8.01058,0,0,1,8-8H472a8.01042,8.01042,0,0,1,8,8V328H32ZM312,440a8,8,0,0,1,0,16H200a8,8,0,0,1,0-16,24.03189,24.03189,0,0,0,24-24V392h64v24A24.03189,24.03189,0,0,0,312,440Zm168-72a8.01058,8.01058,0,0,1-8,8H40a8.01074,8.01074,0,0,1-8-8V344H480Z"/><circle cx="256" cy="360" r="8"/><path d="M440,272a7.9979,7.9979,0,0,0-8-8H400a7.9979,7.9979,0,0,0-8,8v24H360V240a7.9979,7.9979,0,0,0-8-8H320a7.9979,7.9979,0,0,0-8,8v56H280V176a7.9979,7.9979,0,0,0-8-8H240a7.9979,7.9979,0,0,0-8,8V296H200V232a7.9979,7.9979,0,0,0-8-8H160a7.9979,7.9979,0,0,0-8,8v64H120V200a7.9979,7.9979,0,0,0-8-8H80a7.9979,7.9979,0,0,0-8,8v96H56v16H456V296H440ZM88,296V208h16v88Zm80,0V240h16v56Zm80,0V184h16V296Zm80,0V248h16v48Zm80,0V280h16v16Z"/><path d="M181.65723,189.65723l74.80664-74.80762L395.58008,232H376v16h40a8.00039,8.00039,0,0,0,8-8V200H408v21.54126L261.15332,97.88086a8.00175,8.00175,0,0,0-10.81055.46191L176,172.68652,101.65723,98.34277,90.34277,109.65723l80,80A8.003,8.003,0,0,0,181.65723,189.65723Z"/></g></svg>
