<?xml version="1.0"?>
<svg xmlns="http://www.w3.org/2000/svg" id="Layer_1" data-name="Layer 1" viewBox="0 0 512 512" width="512" height="512"><title>Leader</title><circle cx="170.605" cy="63.814" r="42.208" transform="translate(-10.098 40.904) rotate(-13.283)"/><path d="M405.857,266.372a95.3,95.3,0,0,0-13.826-31.984,7,7,0,0,1,.192-8.076l11.832-15.936-16.944-16.047L369.68,206.194a7,7,0,0,1-7.565.19,104.781,104.781,0,0,0-33.984-13.2A7.055,7.055,0,0,1,322.6,187.5L319.14,168H294.952l-3.46,19.5a7.111,7.111,0,0,1-5.5,5.727,107.93,107.93,0,0,0-34.039,13.2,7,7,0,0,1-7.474-.179l-17.447-11.619-17,16.092,11.832,15.928a7,7,0,0,1,.183,8.106,92.4,92.4,0,0,0-13.781,31.918,6.946,6.946,0,0,1-5.679,5.385L182,275.363v22.052l20.6,3.308a6.892,6.892,0,0,1,5.628,5.352,95.269,95.269,0,0,0,13.826,31.982,7,7,0,0,1-.191,8.076l-11.828,15.939,16.989,16.093,17.447-11.605a7,7,0,0,1,7.505-.137,104.814,104.814,0,0,0,33.984,13.229,7.12,7.12,0,0,1,5.531,5.741L294.948,405h24.178l3.46-19.607a7.245,7.245,0,0,1,5.5-5.838,107.863,107.863,0,0,0,34.044-13.2,7,7,0,0,1,7.475.18l17.446,11.618,16.971-16.073-12.154-16.26a7,7,0,0,1-.2-8.122,92.338,92.338,0,0,0,13.77-31.916,6.922,6.922,0,0,1,5.675-5.389L432,297.076V275.031l-20.556-3.308A6.844,6.844,0,0,1,405.857,266.372Zm-98.815,94.706a74.689,74.689,0,1,1,74.687-74.689A74.773,74.773,0,0,1,307.042,361.078Z"/><path d="M195.9,367.963a7,7,0,0,1-.8-9.255l12.665-17.048a108.966,108.966,0,0,1-11.981-27.842L173.8,310.3a6.921,6.921,0,0,1-5.8-6.912V269.4a6.922,6.922,0,0,1,5.8-6.912l21.91-3.524a106.21,106.21,0,0,1,12.017-27.866L195.09,214.071a7,7,0,0,1,.807-9.258l25.559-24.2a7,7,0,0,1,8.692-.75l18.485,12.294a122.216,122.216,0,0,1,11.87-5.736A58.917,58.917,0,0,0,203.411,141H138.347C106.028,141,80,167.408,80,199.727V296h27.728a6.86,6.86,0,0,1,6.988,6.422L125.809,490H164V359.38a7,7,0,0,1,14,0V490h38.477l5.506-97.617c-.18-.14-.367-.07-.535-.23Z"/><path d="M307.042,225.7a60.689,60.689,0,1,0,60.687,60.688A60.757,60.757,0,0,0,307.042,225.7ZM344.3,271.372l-42.6,40.215a7,7,0,0,1-9.819-.207l-22.3-22.894a7,7,0,1,1,10.029-9.768l17.49,17.958,37.592-35.485a7,7,0,0,1,9.61,10.181Z"/></svg>
