<svg xmlns="http://www.w3.org/2000/svg" id="blogger" viewBox="0 0 512 512"><title>blogger</title><path d="m476 96h-118.78a104.034 104.034 0 0 0 -202.44 0h-118.78a19.994 19.994 0 0 0 -20 20v268h45.7a79.969 79.969 0 0 1 53.94-47.69l52.36-15.09 32-9.22v-29.58a137.35 137.35 0 0 1 -11-8.88c-21-18.82-37-44.82-37-73.54v8h-12c-11.05 0-20-16.95-20-28v-16c0-11.05 8.95-12 20-12h12v-1a323.011 323.011 0 0 0 96-15c34.82-10.89 56.07-23.74 56.07-23.74a90.276 90.276 0 0 0 23.3 23.74 83.378 83.378 0 0 0 32.63 13.55v2.45h12a19.994 19.994 0 0 1 20 20v16a19.994 19.994 0 0 1 -20 20h-12v-8c0 33.56-21.85 63.41-48 82.42v29.58l32 9.22 52.36 15.09a79.969 79.969 0 0 1 53.94 47.69h45.7v-268a19.994 19.994 0 0 0 -20-20z" fill="#57a4ff"></path><path d="m304 432h-96l-8 40h112z" fill="#57a4ff"></path><g fill="#004fac"><path d="m476 88h-112.67a112 112 0 0 0 -214.66 0h-112.67a28.031 28.031 0 0 0 -28 28v296a28.031 28.031 0 0 0 28 28h162.24l-4.8 24h-33.44a8 8 0 0 0 -8 8v16h-48a8 8 0 0 0 0 16h272a8 8 0 0 0 0-16h-16v-16a8 8 0 0 0 -8-8h-33.44l-4.8-24h162.24a28.031 28.031 0 0 0 28-28v-296a28.031 28.031 0 0 0 -28-28zm-316 32a96 96 0 0 1 192 0v19.31a79.215 79.215 0 0 1 -41.3-31.53 8.009 8.009 0 0 0 -10.77-2.37c-.6.37-59.24 35.26-139.93 37.48zm0 38.89c70.26-1.8 123.83-26.71 141.78-36.2a93.971 93.971 0 0 0 50.22 33.25v44.06c0 13.75-4.46 40.8-34.34 67.58-19.26 17.26-43.47 28.42-61.66 28.42s-42.4-11.16-61.66-28.42c-29.88-26.78-34.34-53.83-34.34-67.58zm148.14 217.11h-34.41l-4.97-2.44 45.91-52.47 19.41 5.6zm41.64-44.79 44.36 12.79a1.055 1.055 0 0 1 .19.05 72.3 72.3 0 0 1 43.01 31.95h-111.12zm-171.38-4.66 18.93-5.46 45.83 52.39-5.05 2.52h-33.7zm7.93 49.45h-111.67a72.3 72.3 0 0 1 43.01-31.95 1.055 1.055 0 0 1 .19-.05l44.84-12.93zm21.67-67.01v-11.89c16.38 9.48 33.46 14.9 48 14.9s31.62-5.42 48-14.9v11.89l-48 54.86zm-184-192.99a12.01 12.01 0 0 1 12-12h109.15a112.642 112.642 0 0 0 -1.15 16v24h-4c-8.38 0-28 0-28 20v16c0 7.14 2.67 15.54 7.13 22.47 5.62 8.73 13.03 13.53 20.87 13.53h5.52c5.31 28.2 24.04 53.02 46.48 70.35v19.63l-78.49 22.62a88.352 88.352 0 0 0 -57.04 47.4h-32.47zm120 44v40h-4c-4.93 0-12-11.78-12-20v-16c0-2.34.47-2.55 1.12-2.84 2.6-1.16 8.19-1.16 10.88-1.16zm200 320v8h-176v-8zm-134.24-16 4.8-24h82.88l4.8 24zm278.24-52a12.01 12.01 0 0 1 -12 12h-440a12.01 12.01 0 0 1 -12-12v-20h464zm0-36h-32.47a88.352 88.352 0 0 0 -57.04-47.4l-78.49-22.62v-19.63c22.44-17.33 41.17-42.15 46.48-70.35h5.52a28.031 28.031 0 0 0 28-28v-16a28.031 28.031 0 0 0 -28-28h-4v-24a112.642 112.642 0 0 0 -1.15-16h109.15a12.01 12.01 0 0 1 12 12zm-120-176v-40h4a12.01 12.01 0 0 1 12 12v16a12.01 12.01 0 0 1 -12 12z"></path><path d="m408 488h-8a8 8 0 0 0 0 16h8a8 8 0 0 0 0-16z"></path><circle cx="208" cy="176" r="16"></circle><circle cx="304" cy="176" r="16"></circle><path d="m240 256h32a8 8 0 0 0 0-16h-32a8 8 0 0 0 0 16z"></path></g></svg>