<svg xmlns="http://www.w3.org/2000/svg" id="chat" viewBox="0 0 512 512"><path d="m416 284a19.994 19.994 0 0 1 -20 20h-196v68a19.994 19.994 0 0 0 20 20h148l80 80v-80h20a19.994 19.994 0 0 0 20-20v-216a19.994 19.994 0 0 0 -20-20h-52z" fill="#57a4ff"></path><g fill="#004fac"><path d="m468 128h-44v-60a28.031 28.031 0 0 0 -28-28h-360a28.031 28.031 0 0 0 -28 28v216a28.031 28.031 0 0 0 28 28h20v72a8 8 0 0 0 13.66 5.66l77.65-77.66h44.69v60a28.031 28.031 0 0 0 28 28h144.69l77.65 77.66a8 8 0 0 0 13.66-5.66v-72h12a28.031 28.031 0 0 0 28-28v-216a28.031 28.031 0 0 0 -28-28zm-324 168a8.008 8.008 0 0 0 -5.66 2.34l-66.34 66.35v-60.69a8 8 0 0 0 -8-8h-28a12.01 12.01 0 0 1 -12-12v-216a12.01 12.01 0 0 1 12-12h360a12.01 12.01 0 0 1 12 12v216a12.01 12.01 0 0 1 -12 12zm336 76a12.01 12.01 0 0 1 -12 12h-20a8 8 0 0 0 -8 8v60.69l-66.34-66.35a8.008 8.008 0 0 0 -5.66-2.34h-148a12.01 12.01 0 0 1 -12-12v-60h188a28.031 28.031 0 0 0 28-28v-140h44a12.01 12.01 0 0 1 12 12z"></path><path d="m48 152h336a8 8 0 0 0 0-16h-336a8 8 0 0 0 0 16z"></path><path d="m48 120h336a8 8 0 0 0 0-16h-336a8 8 0 0 0 0 16z"></path><path d="m48 184h336a8 8 0 0 0 0-16h-336a8 8 0 0 0 0 16z"></path><path d="m48 216h336a8 8 0 0 0 0-16h-336a8 8 0 0 0 0 16z"></path><path d="m231 240a8 8 0 0 0 -8-8h-175a8 8 0 0 0 0 16h175a8 8 0 0 0 8-8z"></path><path d="m256 232h-8a8 8 0 0 0 0 16h8a8 8 0 0 0 0-16z"></path></g></svg>