<svg xmlns="http://www.w3.org/2000/svg"  id="database" viewBox="0 0 512 512"><title>database</title><circle cx="432" cy="224" fill="#57a4ff" r="16"></circle><path d="m176 432v-64h304v-104h-56a40 40 0 0 1 0-80h56v-104h-416v194.66a187.432 187.432 0 0 1 32-2.66c44.18 0 80 14.33 80 32s-35.82 32-80 32a187.432 187.432 0 0 1 -32-2.66c-28.25-4.94-48-16.22-48-29.34v128c0 17.67 35.82 32 80 32s80-14.33 80-32zm-98.594-32.879q.535.053 1.076.1l.028.009c-.371-.03-.735-.074-1.104-.109z" fill="#57a4ff"></path><g fill="#004fac"><path d="m408 224a24 24 0 1 0 24-24 24.027 24.027 0 0 0 -24 24zm24-8a8 8 0 1 1 -8 8 8.009 8.009 0 0 1 8-8z"></path><path d="m496 176h-8v-108a28.031 28.031 0 0 0 -28-28h-376a28.031 28.031 0 0 0 -28 28v200.08a124.492 124.492 0 0 0 -19.54 5.87c-18.35 7.34-28.46 18.01-28.46 30.05v128c0 12.04 10.11 22.71 28.46 30.05 16.04 6.42 37.18 9.95 59.54 9.95s43.5-3.53 59.54-9.95c18.35-7.34 28.46-18.01 28.46-30.05v-24h276a28.031 28.031 0 0 0 28-28v-108h8a8 8 0 0 0 8-8v-80a8 8 0 0 0 -8-8zm-424-108a12.01 12.01 0 0 1 12-12h376a12.01 12.01 0 0 1 12 12v4h-400zm96 364c0 9.79-28.05 24-72 24s-72-14.21-72-24v-8.22a75.365 75.365 0 0 0 12.46 6.28c16.03 6.41 37.18 9.94 59.54 9.94s43.51-3.53 59.54-9.94a75.365 75.365 0 0 0 12.46-6.28zm0-32c0 9.79-28.05 24-72 24s-72-14.21-72-24v-8.22a75.365 75.365 0 0 0 12.46 6.28c16.03 6.41 37.18 9.94 59.54 9.94s43.51-3.53 59.54-9.94a75.365 75.365 0 0 0 12.46-6.28zm0-32c0 9.79-28.05 24-72 24s-72-14.21-72-24v-8.22a75.365 75.365 0 0 0 12.46 6.28c16.03 6.41 37.18 9.94 59.54 9.94s43.51-3.53 59.54-9.94a75.365 75.365 0 0 0 12.46-6.28zm0-32c0 9.79-28.05 24-72 24s-72-14.21-72-24v-8.22a75.365 75.365 0 0 0 12.46 6.28c16.03 6.41 37.18 9.94 59.54 9.94s43.51-3.53 59.54-9.94a75.365 75.365 0 0 0 12.46-6.28zm-72-8c-43.95 0-72-14.21-72-24s28.05-24 72-24 72 14.21 72 24-28.05 24-72 24zm376 52a12.01 12.01 0 0 1 -12 12h-276v-16h288zm0-20h-288v-56c0-12.04-10.11-22.71-28.46-30.05-16.04-6.42-37.18-9.95-59.54-9.95a201.059 201.059 0 0 0 -24 1.41v-177.41h400v88h-48a48 48 0 0 0 0 96h48zm16-104h-64a32 32 0 0 1 0-64h64z"></path></g></svg>