<svg xmlns="http://www.w3.org/2000/svg" id="drop" viewBox="0 0 512 512"><g fill="#57a4ff"><path d="m416 368v-48h-32v48h-24l40 56 40-56z"></path><path d="m96 320v48h-24l40 56 40-56h-24v-48z"></path><path d="m456 88a48 48 0 0 1 -48-48h-304a48 48 0 0 1 -48 48v128a48 48 0 0 1 48 48h304a48 48 0 0 1 48-48zm-200 136a72 72 0 1 1 72-72 72.006 72.006 0 0 1 -72 72z"></path></g><g fill="#004fac"><path d="m480 8h-448a8 8 0 0 0 -8 8v272a8 8 0 0 0 8 8h448a8 8 0 0 0 8-8v-272a8 8 0 0 0 -8-8zm-8 272h-432v-256h432z"></path><path d="m456 80a40.04 40.04 0 0 1 -40-40 8 8 0 0 0 -8-8h-304a8 8 0 0 0 -8 8 40.04 40.04 0 0 1 -40 40 8 8 0 0 0 -8 8v128a8 8 0 0 0 8 8 40.04 40.04 0 0 1 40 40 8 8 0 0 0 8 8h304a8 8 0 0 0 8-8 40.04 40.04 0 0 1 40-40 8 8 0 0 0 8-8v-128a8 8 0 0 0 -8-8zm-8 128.57a56.132 56.132 0 0 0 -47.43 47.43h-289.14a56.132 56.132 0 0 0 -47.43-47.43v-113.14a56.132 56.132 0 0 0 47.43-47.43h289.14a56.132 56.132 0 0 0 47.43 47.43z"></path><path d="m256 72a80 80 0 1 0 80 80 80.093 80.093 0 0 0 -80-80zm0 144a64 64 0 1 1 64-64 64.072 64.072 0 0 1 -64 64z"></path><path d="m280 152v24a8 8 0 0 1 -8 8h-8a8 8 0 0 1 -16 0h-8a8 8 0 0 1 0-16h24v-8h-24a8 8 0 0 1 -8-8v-24a8 8 0 0 1 8-8h8a8 8 0 0 1 16 0h8a8 8 0 0 1 0 16h-24v8h24a8 8 0 0 1 8 8z"></path><path d="m336 392h-32v-72a8 8 0 0 0 -8-8h-80a8 8 0 0 0 -8 8v72h-32a8 8 0 0 0 -6.146 13.122l80 96a8 8 0 0 0 12.292 0l80-96a8 8 0 0 0 -6.146-13.122zm-80 91.5-62.92-75.5h22.92a8 8 0 0 0 8-8v-72h64v72a8 8 0 0 0 8 8h22.92z"></path><path d="m440 360h-16v-40a8 8 0 0 0 -8-8h-32a8 8 0 0 0 -8 8v40h-16a8 8 0 0 0 -6.51 12.65l40 56a8 8 0 0 0 13.02 0l40-56a8 8 0 0 0 -6.51-12.65zm-40 50.236-24.454-34.236h8.454a8 8 0 0 0 8-8v-40h16v40a8 8 0 0 0 8 8h8.454z"></path><path d="m152 360h-16v-40a8 8 0 0 0 -8-8h-32a8 8 0 0 0 -8 8v40h-16a8 8 0 0 0 -6.51 12.65l40 56a8 8 0 0 0 13.02 0l40-56a8 8 0 0 0 -6.51-12.65zm-40 50.236-24.454-34.236h8.454a8 8 0 0 0 8-8v-40h16v40a8 8 0 0 0 8 8h8.454z"></path></g></svg>