<svg xmlns="http://www.w3.org/2000/svg" id="growth" viewBox="0 0 512 512"><title>growth</title><g fill="#57a4ff"><path d="m256 280a96 96 0 1 0 96 96 96 96 0 0 0 -96-96zm0 168a72 72 0 1 1 72-72 72.006 72.006 0 0 1 -72 72z"></path><circle cx="256" cy="104" r="16"></circle><circle cx="160" cy="168" r="16"></circle><circle cx="64" cy="216" r="16"></circle><circle cx="448" cy="120" r="16"></circle><circle cx="352" cy="168" r="16"></circle><path d="m384 248h72v40h-72z"></path></g><g fill="#004fac"><path d="m256 296a80 80 0 1 0 80 80 80.091 80.091 0 0 0 -80-80zm0 144a64 64 0 1 1 64-64 64.072 64.072 0 0 1 -64 64z"></path><path d="m272 360a8 8 0 0 0 0-16h-8a8 8 0 0 0 -16 0h-8a8 8 0 0 0 -8 8v24a8 8 0 0 0 8 8h24v8h-24a8 8 0 0 0 0 16h8a8 8 0 0 0 16 0h8a8 8 0 0 0 8-8v-24a8 8 0 0 0 -8-8h-24v-8z"></path><path d="m496 32h-480a8 8 0 0 0 -8 8v336a8 8 0 0 0 8 8h136.3a104.009 104.009 0 0 0 207.4 0h136.3a8 8 0 0 0 8-8v-336a8 8 0 0 0 -8-8zm-240 432a88 88 0 1 1 88-88 88.1 88.1 0 0 1 -88 88zm232-96h-128.3a104.009 104.009 0 0 0 -207.4 0h-128.3v-320h464z"></path><path d="m64 240a24.039 24.039 0 0 0 23.536-19.309l55.81-35.434a23.994 23.994 0 0 0 40.175-22.038l52.807-45.5a23.968 23.968 0 0 0 38.814.734l53.127 53.126a24 24 0 0 0 47.338.711l52.286-39.214a23.99 23.99 0 1 0 -3.5-17.374l-52.286 39.218a23.971 23.971 0 0 0 -39.249-1.377l-53.127-53.126a24 24 0 0 0 -47.4-.369l-57.237 49.311a23.97 23.97 0 0 0 -38.918 21.5l-51.618 32.771a24 24 0 1 0 -20.558 36.37zm384-128a8 8 0 1 1 -8 8 8.009 8.009 0 0 1 8-8zm-96 48a8 8 0 1 1 -8 8 8.009 8.009 0 0 1 8-8zm-96-64a8 8 0 1 1 -8 8 8.009 8.009 0 0 1 8-8zm-96 64a8 8 0 1 1 -8 8 8.009 8.009 0 0 1 8-8zm-96 48a8 8 0 1 1 -8 8 8.009 8.009 0 0 1 8-8z"></path><path d="m456 240h-72a8 8 0 0 0 -8 8v40a8 8 0 0 0 8 8h72a8 8 0 0 0 8-8v-40a8 8 0 0 0 -8-8zm-8 40h-56v-24h56z"></path></g></svg>