<svg id="insurance" xmlns="http://www.w3.org/2000/svg" viewBox="0 0 512 512"><g fill="#57a4ff"><path d="m16 216h128c0-92.78 50.14-168 112-168-132.55 0-240 75.22-240 168z"></path><path d="m256 48c61.86 0 112 75.22 112 168h128c0-92.78-107.45-168-240-168z"></path><path d="m272 16h-32v32h16 16z"></path><path d="m240 444a20 20 0 0 1 -20 20h-16a20 20 0 0 1 -20-20v-28h-32v40a40 40 0 0 0 40 40h40a40 40 0 0 0 40-40v-239h-32z"></path></g><g fill="#004fac"><path d="m430.29 90.65c-40.93-28.65-93.6-46.01-150.29-49.84v-24.81a8 8 0 0 0 -8-8h-32a8 8 0 0 0 -8 8v24.81c-56.69 3.83-109.36 21.19-150.29 49.84-47.53 33.27-73.71 77.79-73.71 125.35a8 8 0 0 0 8 8h216v220a12.01 12.01 0 0 1 -12 12h-16a12.01 12.01 0 0 1 -12-12v-28a8 8 0 0 0 -8-8h-32a8 8 0 0 0 -8 8v40a48.051 48.051 0 0 0 48 48h40a48.051 48.051 0 0 0 48-48v-232h216a8 8 0 0 0 8-8c0-47.56-26.18-92.08-73.71-125.35zm-182.29-66.65h16v16h-16zm-111.87 184h-111.84c5.1-71.11 77.84-130.15 174.66-147.1a137.238 137.238 0 0 0 -28.8 31.87c-20.75 31.13-32.71 71.79-34.02 115.23zm127.87 248a32.036 32.036 0 0 1 -32 32h-40a32.036 32.036 0 0 1 -32-32v-32h16v20a28.031 28.031 0 0 0 28 28h16a28.031 28.031 0 0 0 28-28v-219h16zm-111.87-248c1.29-40.29 12.3-77.81 31.33-106.36 19.62-29.43 45.38-45.64 72.54-45.64s52.92 16.21 72.54 45.64c19.03 28.55 30.04 66.07 31.33 106.36zm223.74 0c-1.31-43.44-13.27-84.1-34.02-115.23a137.238 137.238 0 0 0 -28.8-31.87c96.82 16.95 169.56 75.99 174.66 147.1z"></path><path d="m377 240a80 80 0 1 0 80 80 80.091 80.091 0 0 0 -80-80zm0 144a64 64 0 1 1 64-64 64.072 64.072 0 0 1 -64 64z"></path><path d="m393 304a8 8 0 0 0 0-16h-8a8 8 0 0 0 -16 0h-8a8 8 0 0 0 -8 8v24a8 8 0 0 0 8 8h24v8h-24a8 8 0 0 0 0 16h8a8 8 0 0 0 16 0h8a8 8 0 0 0 8-8v-24a8 8 0 0 0 -8-8h-24v-8z"></path></g></svg>