<svg id="wallet" xmlns="http://www.w3.org/2000/svg" viewBox="0 0 512 512"><g fill="#57a4ff"><path d="m344 120a24.006 24.006 0 0 1 24 24h24a48 48 0 0 0 -96 0h24a24.006 24.006 0 0 1 24-24z"></path><path d="m160 64a48 48 0 1 0 48-48 48 48 0 0 0 -48 48zm48-24a24 24 0 1 1 -24 24 24.006 24.006 0 0 1 24-24z"></path><path d="m480 360h-56a40 40 0 0 1 0-80h56v-104h-464v288h464z"></path><circle cx="432" cy="320" r="16"></circle></g><g fill="#004fac"><path d="m432 296a24 24 0 1 0 24 24 24.027 24.027 0 0 0 -24-24zm0 32a8 8 0 1 1 8-8 8.009 8.009 0 0 1 -8 8z"></path><path d="m496 272h-8v-108a28.031 28.031 0 0 0 -28-28h-60.58a55.994 55.994 0 0 0 -110.84 0h-252.58a28.031 28.031 0 0 0 -28 28v312a28.031 28.031 0 0 0 28 28h424a28.031 28.031 0 0 0 28-28v-108h8a8 8 0 0 0 8-8v-80a8 8 0 0 0 -8-8zm-152-168a40.069 40.069 0 0 1 39.2 32h-8.21a32.008 32.008 0 0 0 -61.98 0h-8.21a40.069 40.069 0 0 1 39.2-32zm13.84 32h-27.68a15.972 15.972 0 0 1 27.68 0zm-333.84 28a12.01 12.01 0 0 1 12-12h424a12.01 12.01 0 0 1 12 12v4h-448zm448 312a12.01 12.01 0 0 1 -12 12h-424a12.01 12.01 0 0 1 -12-12v-4h448zm0-20h-448v-272h448v88h-48a48 48 0 0 0 0 96h48zm16-104h-64a32 32 0 0 1 0-64h64z"></path><path d="m208 120a56 56 0 1 0 -56-56 56.064 56.064 0 0 0 56 56zm0-96a40 40 0 1 1 -40 40 40.045 40.045 0 0 1 40-40z"></path><path d="m208 96a32 32 0 1 0 -32-32 32.036 32.036 0 0 0 32 32zm0-48a16 16 0 1 1 -16 16 16.019 16.019 0 0 1 16-16z"></path></g></svg>